<svg xmlns="http://www.w3.org/2000/svg" xmlns:xlink="http://www.w3.org/1999/xlink" version="1.1" x="0px" y="0px" viewBox="0 0 100 125" enable-background="new 0 0 100 100" xml:space="preserve"><path d="M54.234,29.117c0.123,1.882-0.71,6.006-2.975,9.594c-1.891,2.997-4.139,6.045-5.246,9.348  c-0.077-0.897-0.743-4.142,2.509-9.38c1.906-3.071,5.16-6.964,5.621-10.708L54.234,29.117z M54.527,16.911  c-0.482,3.744-3.888,7.638-5.883,10.708c-3.402,5.238-2.707,8.483-2.625,9.379c1.157-3.303,3.509-6.352,5.487-9.348  c2.37-3.587,3.242-7.711,3.114-9.593L54.527,16.911z M46.796,15.239c0.386,0.418,2.577-0.695,2.262-0.013  c-0.225,0.488-0.542,0.905-0.784,1.334c-2.942,5.238-2.341,8.483-2.27,9.38c1-3.303,2.676-6.507,4.387-9.503  c0.341-0.597,0.616-1.42,1.243-1.66c0.305-0.117,1.459-0.348,2.273-0.176c0.471,0.099-2.053-3.207-2.646-5.509  c0,0,0.065-1.037-0.773-1.471c-0.706-0.365-3.04-0.635-3.809-1.261c-0.274-0.222-0.138,0.247,0.186,1.237  c0.333,1.015,2.946,0.823,2.88,1.4C50.114,9.824,46.796,15.239,46.796,15.239z M54.145,38.108  c-0.461,3.744-3.715,7.637-5.621,10.708c-3.252,5.238-2.586,8.483-2.509,9.379c1.106-3.303,3.354-6.35,5.246-9.347  c2.265-3.588,3.098-7.711,2.975-9.594L54.145,38.108z M54.145,49.167c-0.461,3.744-3.715,7.638-5.621,10.708  c-3.252,5.238-2.586,8.482-2.509,9.381c1.106-3.303,3.354-6.352,5.246-9.348c2.265-3.588,3.098-7.711,2.975-9.595L54.145,49.167z   M54.145,60.227c-0.461,3.744-3.715,7.637-5.621,10.708c-3.252,5.239-2.586,8.483-2.509,9.38c1.106-3.303,3.354-6.352,5.246-9.348  c2.265-3.588,3.098-7.711,2.975-9.594L54.145,60.227z M54.145,71.285c-0.461,3.744-3.715,7.638-5.621,10.708  c-3.252,5.239-2.586,8.484-2.509,9.38c1.106-3.303,3.354-6.352,5.246-9.348c2.265-3.588,3.098-7.711,2.975-9.593L54.145,71.285z   M54.145,81.424c-0.461,3.744-3.715,7.637-5.621,10.707c-0.477,0.77-1.191,2.176-1.191,2.176l2.517,0.037  c0,0,0.954-1.457,1.411-2.181c2.265-3.587,3.098-7.71,2.975-9.593L54.145,81.424z"/></svg>